HIERARCHY
ROOT hip
{
  OFFSET 88.5616 82.3979 180.613
  CHANNELS 6 Xposition Yposition Zposition Zrotation Xrotation Yrotation
  JOINT abdomen
  {
    OFFSET 0 20.6881 -0.73152
    CHANNELS 3 Zrotation Xrotation Yrotation
    JOINT chest
    {
      OFFSET 0 11.7043 -0.48768
      CHANNELS 3 Zrotation Xrotation Yrotation
      JOINT neck
      {
        OFFSET 0 22.1894 -2.19456
        CHANNELS 3 Zrotation Xrotation Yrotation
        JOINT head
        {
          OFFSET -0.24384 7.07133 1.2192
          CHANNELS 3 Zrotation Xrotation Yrotation
          JOINT leftEye
          {
            OFFSET 4.14528 8.04674 8.04672
            CHANNELS 3 Zrotation Xrotation Yrotation
            End Site
            {
              OFFSET 1 0 0
            }
          }
          JOINT rightEye
          {
            OFFSET -3.6576 8.04674 8.04672
            CHANNELS 3 Zrotation Xrotation Yrotation
            End Site
            {
              OFFSET 1 0 0
            }
          }
        }
      }
      JOINT rCollar
      {
        OFFSET -2.68224 19.2634 -4.8768
        CHANNELS 3 Zrotation Xrotation Yrotation
        JOINT rShldr
        {
          OFFSET -8.77824 -1.95073 1.46304
          CHANNELS 3 Zrotation Xrotation Yrotation
          JOINT rForeArm
          {
            OFFSET -28.1742 -1.7115 0.48768
            CHANNELS 3 Zrotation Xrotation Yrotation
            JOINT rHand
            {
              OFFSET -22.5879 0.773209 7.07136
              CHANNELS 3 Zrotation Xrotation Yrotation
              JOINT rThumb1
              {
                OFFSET -1.2192 -0.487915 3.41376
                CHANNELS 3 Zrotation Xrotation Yrotation
                JOINT rThumb2
                {
                  OFFSET -3.37035 -0.52449 3.41376
                  CHANNELS 3 Zrotation Xrotation Yrotation
                  End Site
                  {
                    OFFSET -1.78271 -1.18214 1.43049
                  }
                }
              }
              JOINT rIndex1
              {
                OFFSET -7.75947 0.938293 5.60832
                CHANNELS 3 Zrotation Xrotation Yrotation
                JOINT rIndex2
                {
                  OFFSET -2.54057 -0.884171 1.56538
                  CHANNELS 3 Zrotation Xrotation Yrotation
                  End Site
                  {
                    OFFSET -1.62519 -0.234802 1.16502
                  }
                }
              }
              JOINT rMid1
              {
                OFFSET -8.24714 1.18213 3.41376
                CHANNELS 3 Zrotation Xrotation Yrotation
                JOINT rMid2
                {
                  OFFSET -3.10165 -0.590103 1.0647
                  CHANNELS 3 Zrotation Xrotation Yrotation
                  End Site
                  {
                    OFFSET -2.48547 -0.328903 0.83742
                  }
                }
              }
              JOINT rRing1
              {
                OFFSET -8.82822 0.546677 1.51678
                CHANNELS 3 Zrotation Xrotation Yrotation
                JOINT rRing2
                {
                  OFFSET -2.60934 -0.819778 -0.0198488
                  CHANNELS 3 Zrotation Xrotation Yrotation
                  End Site
                  {
                    OFFSET -2.33842 -0.294052 0.168128
                  }
                }
              }
              JOINT rPinky1
              {
                OFFSET -8.27202 -0.0477905 -0.4584
                CHANNELS 3 Zrotation Xrotation Yrotation
                JOINT rPinky2
                {
                  OFFSET -1.82734 -0.647385 -0.700984
                  CHANNELS 3 Zrotation Xrotation Yrotation
                  End Site
                  {
                    OFFSET -1.69225 -0.51767 -0.607171
                  }
                }
              }
            }
          }
        }
      }
      JOINT lCollar
      {
        OFFSET 2.68224 19.2634 -4.8768
        CHANNELS 3 Zrotation Xrotation Yrotation
        JOINT lShldr
        {
          OFFSET 8.77824 -1.95073 1.46304
          CHANNELS 3 Zrotation Xrotation Yrotation
          JOINT lForeArm
          {
            OFFSET 28.1742 -1.7115 0.48768
            CHANNELS 3 Zrotation Xrotation Yrotation
            JOINT lHand
            {
              OFFSET 22.5879 0.773209 7.07136
              CHANNELS 3 Zrotation Xrotation Yrotation
              JOINT lThumb1
              {
                OFFSET 1.2192 -0.487915 3.41376
                CHANNELS 3 Zrotation Xrotation Yrotation
                JOINT lThumb2
                {
                  OFFSET 3.37035 -0.52449 3.41376
                  CHANNELS 3 Zrotation Xrotation Yrotation
                  End Site
                  {
                    OFFSET 1.78271 -1.18214 1.43049
                  }
                }
              }
              JOINT lIndex1
              {
                OFFSET 7.75947 0.938293 5.60832
                CHANNELS 3 Zrotation Xrotation Yrotation
                JOINT lIndex2
                {
                  OFFSET 2.54057 -0.884171 1.56538
                  CHANNELS 3 Zrotation Xrotation Yrotation
                  End Site
                  {
                    OFFSET 1.62519 -0.234802 1.16502
                  }
                }
              }
              JOINT lMid1
              {
                OFFSET 8.24714 1.18213 3.41376
                CHANNELS 3 Zrotation Xrotation Yrotation
                JOINT lMid2
                {
                  OFFSET 3.10165 -0.590103 1.0647
                  CHANNELS 3 Zrotation Xrotation Yrotation
                  End Site
                  {
                    OFFSET 2.48547 -0.328903 0.83742
                  }
                }
              }
              JOINT lRing1
              {
                OFFSET 8.82822 0.546677 1.51678
                CHANNELS 3 Zrotation Xrotation Yrotation
                JOINT lRing2
                {
                  OFFSET 2.60934 -0.819778 -0.0198488
                  CHANNELS 3 Zrotation Xrotation Yrotation
                  End Site
                  {
                    OFFSET 2.33842 -0.294052 0.168128
                  }
                }
              }
              JOINT lPinky1
              {
                OFFSET 8.27202 -0.0477905 -0.4584
                CHANNELS 3 Zrotation Xrotation Yrotation
                JOINT lPinky2
                {
                  OFFSET 1.82734 -0.647385 -0.700984
                  CHANNELS 3 Zrotation Xrotation Yrotation
                  End Site
                  {
                    OFFSET 1.69225 -0.51767 -0.607171
                  }
                }
              }
            }
          }
        }
      }
    }
  }
  JOINT rButtock
  {
    OFFSET -8.77824 4.35084 1.2192
    CHANNELS 3 Zrotation Xrotation Yrotation
    JOINT rThigh
    {
      OFFSET 0 -1.70687 -2.19456
      CHANNELS 3 Zrotation Xrotation Yrotation
      JOINT rShin
      {
        OFFSET 0 -36.8199 0.73152
        CHANNELS 3 Zrotation Xrotation Yrotation
        JOINT rFoot
        {
          OFFSET 0.73152 -45.1104 -5.12064
          CHANNELS 3 Zrotation Xrotation Yrotation
          End Site
          {
            OFFSET -1.1221 -3.69964 12.103
          }
        }
      }
    }
  }
  JOINT lButtock
  {
    OFFSET 8.77824 4.35084 1.2192
    CHANNELS 3 Zrotation Xrotation Yrotation
    JOINT lThigh
    {
      OFFSET 0 -1.70687 -2.19456
      CHANNELS 3 Zrotation Xrotation Yrotation
      JOINT lShin
      {
        OFFSET 0 -36.8199 0.73152
        CHANNELS 3 Zrotation Xrotation Yrotation
        JOINT lFoot
        {
          OFFSET -0.73152 -45.1104 -5.12064
          CHANNELS 3 Zrotation Xrotation Yrotation
          End Site
          {
            OFFSET 1.1221 -3.69964 12.103
          }
        }
      }
    }
  }
}
MOTION
Frames:	7
Frame Time:	0.00833333
-59.8987 85.0114 -179.015 -0.0194629 1.3539e-005 0.000335383 0.0256064 -6.19206e-006 0.00072884 0.00706479 8.63096e-006 0.00122382 -4.1461e-016 -7.95139e-016 1.16475e-018 -1.24551e-015 3.18055e-015 6.21202e-018 -0 0 0 -0 0 0 -1.50419e-016 0 1.98785e-016 -2.41871e-015 2.17421e-016 7.95139e-016 -7.19104e-014 2.66371e-014 1.27222e-014 -8.6129e-013 -7.62836e-015 -1.90833e-014 -2.0267e-012 4.031e-014 9.54166e-015 -3.50577e-012 6.67917e-014 1.19271e-014 -2.02045e-012 4.41302e-014 -1.27222e-014 7.73091 5.47488 0.417314 -2.02651e-012 4.08502e-014 6.36111e-015 2.90554 0.965183 0.102902 -2.01824e-012 4.06515e-014 8.74653e-015 10.2786 0.731801 0.0259123 -2.03536e-012 4.01545e-014 2.22639e-014 2.22167 -0.733487 -0.20892 -2.47164e-016 0 -1.98785e-016 -6.32859e-015 3.23025e-016 -7.95139e-016 -7.71284e-014 -2.04748e-014 -6.36111e-015 -8.58868e-013 2.66371e-014 2.22639e-014 -2.0279e-012 9.49851e-015 2.22639e-014 -3.49106e-012 1.90833e-014 2.38542e-014 -2.03396e-012 1.27222e-014 2.8625e-014 -7.73091 5.47488 -0.417314 -2.02845e-012 9.24349e-015 9.54166e-015 -2.90554 0.965183 -0.102902 -2.03588e-012 9.64106e-015 1.27222e-014 -10.2786 0.731801 -0.0259123 -2.02721e-012 9.54166e-015 0 -2.22167 -0.733487 0.20892 -2.03217e-016 0 -3.88251e-019 0.512301 -3.13364 -0.0420886 -0.00562803 0.1231 -0.0495525 -0.492801 3.00963 0.11736 2.03217e-016 0 3.88251e-019 -0.473323 -3.03453 0.0397104 0.00592197 -0.056435 0.0521749 0.492503 3.09005 -0.118955 
-59.9207 82.8366 -179.686 -0.383563 0.524261 -0.767752 0.877685 1.0038 -1.31171 1.60054 -0.074145 -0.32476 -3.17397 2.3202 -0.0201877 2.20764 -2.47539 0.54013 -0 0 0 -0 0 0 2.16911e-015 -3.92007e-015 -3.57055e-014 21.8544 0.577477 -2.01147 -2.72003 -1.03597 4.44304 0.0636842 5.70173 0.787786 6.92713e-011 -2.84759e-010 -1.20027e-010 1.17049e-010 -4.9234e-010 -2.08602e-010 6.9275e-011 -2.84756e-010 -1.20045e-010 7.73091 5.47488 0.417314 6.92704e-011 -2.84758e-010 -1.2003e-010 2.90554 0.965183 0.102902 6.92783e-011 -2.84759e-010 -1.20029e-010 10.2786 0.731801 0.0259123 6.92617e-011 -2.84758e-010 -1.20017e-010 2.22167 -0.733487 -0.20892 2.04899e-015 -3.91985e-015 -3.60658e-014 -22.8708 2.9392 -0.792753 5.78913 -3.04275 -8.54945 -0.000157827 0.378566 -0.0532051 1.51812e-010 5.56238e-010 -2.21707e-010 2.62392e-010 9.62565e-010 -3.84937e-010 1.51807e-010 5.56241e-010 -2.217e-010 -7.73091 5.47488 -0.417314 1.51812e-010 5.56239e-010 -2.21714e-010 -2.90554 0.965183 -0.102902 1.51809e-010 5.56241e-010 -2.21713e-010 -10.2786 0.731801 -0.0259123 1.51815e-010 5.56238e-010 -2.21725e-010 -2.22167 -0.733487 0.20892 -2.03217e-016 0 -3.88251e-019 2.33567 -9.77848 2.48935 -0.0522499 9.28805 -0.0109918 -0.567046 1.16629 -1.85998 2.03217e-016 0 3.88251e-019 0.110807 -7.34132 0.678993 0.000194559 17.0787 -0.178859 0.329182 4.23223 -4.33794 
-59.954 83.2248 -178.194 -0.738362 1.0772 -1.55163 1.81584 2.0655 -2.72621 3.28315 -0.149578 -0.676787 -6.51774 4.75384 -0.0396928 4.58845 -5.06912 1.11918 -0 0 0 -0 0 0 3.627e-015 -8.59799e-015 -7.56593e-014 45.002 1.04011 -4.16141 -5.38514 -2.08928 9.08779 -0.0451545 11.8484 1.66462 1.58053e-010 -6.07995e-010 -2.44027e-010 2.67615e-010 -1.05124e-009 -4.24288e-010 1.58053e-010 -6.07993e-010 -2.4404e-010 7.73091 5.47488 0.417314 1.5805e-010 -6.07993e-010 -2.44031e-010 2.90554 0.965183 0.102902 1.58058e-010 -6.07994e-010 -2.44031e-010 10.2786 0.731801 0.0259123 1.58042e-010 -6.07992e-010 -2.4402e-010 2.22167 -0.733487 -0.20892 3.47978e-015 -8.59762e-015 -7.59823e-014 -46.9435 6.04317 -1.66793 10.938 -6.03816 -17.6714 0.000517252 0.749216 -0.105309 3.33632e-010 1.18478e-009 -4.66477e-010 5.76636e-010 2.05022e-009 -8.09974e-010 3.33628e-010 1.18478e-009 -4.66471e-010 -7.73091 5.47488 -0.417314 3.33633e-010 1.18478e-009 -4.66479e-010 -2.90554 0.965183 -0.102902 3.33634e-010 1.18479e-009 -4.6648e-010 -10.2786 0.731801 -0.0259123 3.33637e-010 1.18478e-009 -4.66493e-010 -2.22167 -0.733487 0.20892 -2.03217e-016 0 -3.88251e-019 4.90484 -16.8163 5.30606 -0.116483 18.9884 0.0302004 -0.781635 -0.749358 -3.95443 2.03217e-016 0 3.88251e-019 0.806438 -11.8003 1.32388 0.172492 35.163 -0.497421 0.344346 5.4353 -8.88114 
-59.9813 83.4226 -176.775 -1.0696 1.57163 -2.3047 2.71985 3.0051 -3.9414 4.78496 -0.222423 -0.976734 -9.51697 6.96058 -0.0609627 6.76391 -7.42353 1.63257 -0 0 0 -0 0 0 6.80816e-015 -1.17602e-014 -1.07514e-013 65.6846 1.72389 -6.03686 -7.68235 -3.03325 13.346 -0.297664 17.0919 2.46039 2.11867e-010 -8.54359e-010 -3.60099e-010 3.5816e-010 -1.47715e-009 -6.25829e-010 2.11866e-010 -8.54357e-010 -3.60108e-010 7.73091 5.47488 0.417314 2.11864e-010 -8.54356e-010 -3.60103e-010 2.90554 0.965183 0.102902 2.11871e-010 -8.54357e-010 -3.60104e-010 10.2786 0.731801 0.0259123 2.11856e-010 -8.54354e-010 -3.60095e-010 2.22167 -0.733487 -0.20892 6.6413e-015 -1.17596e-014 -1.078e-013 -68.366 8.81079 -2.40351 14.7206 -8.31686 -25.9042 0.0016361 1.13569 -0.159643 4.59491e-010 1.6687e-009 -6.65164e-010 7.94159e-010 2.88766e-009 -1.15486e-009 4.59489e-010 1.6687e-009 -6.65158e-010 -7.73091 5.47488 -0.417314 4.59492e-010 1.6687e-009 -6.65161e-010 -2.90554 0.965183 -0.102902 4.59498e-010 1.6687e-009 -6.65163e-010 -10.2786 0.731801 -0.0259123 4.59498e-010 1.6687e-009 -6.65177e-010 -2.22167 -0.733487 0.20892 -2.03217e-016 0 -3.88251e-019 7.87076 -22.8896 8.08387 -0.185427 27.6179 0.0751213 -1.09673 -2.5056 -5.81875 2.03217e-016 0 3.88251e-019 1.57782 -15.947 2.01869 0.603025 51.3451 -0.988239 0.504323 6.39089 -12.8217 
-60.6516 83.3442 -175.923 -1.36905 1.92064 -2.98007 3.43629 3.64611 -4.65344 5.83654 -0.288826 -1.14647 -11.6575 8.60009 -0.0863712 8.32621 -9.18223 1.97046 -0 0 0 -0 0 0 1.42975e-014 -1.11331e-014 -1.19122e-013 80.1635 2.96447 -7.22732 -9.36916 -3.76675 16.6238 -0.52217 20.0924 2.94685 1.78267e-010 -9.08543e-010 -4.56349e-010 2.98653e-010 -1.57061e-009 -7.92005e-010 1.78264e-010 -9.08542e-010 -4.56356e-010 7.73091 5.47488 0.417314 1.78263e-010 -9.08541e-010 -4.56352e-010 2.90554 0.965183 0.102902 1.7827e-010 -9.08541e-010 -4.56354e-010 10.2786 0.731801 0.0259123 1.78255e-010 -9.08538e-010 -4.56346e-010 2.22167 -0.733487 -0.20892 1.41296e-014 -1.11319e-014 -1.1937e-013 -83.3532 10.7451 -2.76392 16.9331 -9.58386 -31.6683 0.00299231 1.56175 -0.219544 4.45447e-010 1.79103e-009 -7.48642e-010 7.6988e-010 3.09955e-009 -1.29937e-009 4.45446e-010 1.79103e-009 -7.48636e-010 -7.73091 5.47488 -0.417314 4.45449e-010 1.79104e-009 -7.48636e-010 -2.90554 0.965183 -0.102902 4.45456e-010 1.79104e-009 -7.48639e-010 -10.2786 0.731801 -0.0259123 4.45456e-010 1.79103e-009 -7.48652e-010 -2.22167 -0.733487 0.20892 -2.03217e-016 0 -3.88251e-019 10.4302 -26.7173 10.2634 -0.239904 33.5702 0.121299 -1.40275 -3.87952 -7.10002 2.03217e-016 0 3.88251e-019 2.37654 -19.3171 2.80031 1.28129 62.7744 -1.67282 0.639135 6.84763 -15.2141 
-60.711 83.4004 -174.585 -1.6308 2.03166 -3.52263 3.85751 3.87231 -4.6874 6.19411 -0.258453 -1.14877 -12.581 9.48255 -0.122751 9.02172 -10.2247 2.04666 -0 0 0 -0 0 0 3.19645e-014 -3.84734e-015 -9.46339e-014 85.9957 5.06463 -7.38484 -10.3542 -4.25949 18.5595 -0.533255 19.9013 2.92038 -3.34848e-011 -6.06246e-010 -5.3457e-010 -6.72875e-011 -1.04732e-009 -9.24939e-010 -3.34875e-011 -6.06246e-010 -5.34576e-010 7.73091 5.47488 0.417314 -3.34886e-011 -6.06245e-010 -5.34572e-010 2.90554 0.965183 0.102902 -3.3482e-011 -6.06245e-010 -5.34573e-010 10.2786 0.731801 0.0259123 -3.34945e-011 -6.06242e-010 -5.34566e-010 2.22167 -0.733487 -0.20892 3.18319e-014 -3.84562e-015 -9.48393e-014 -89.3463 11.5016 -2.64821 17.6813 -9.96352 -33.8492 0.00486038 2.09362 -0.294342 1.52475e-010 1.24806e-009 -6.39372e-010 2.63512e-010 2.16055e-009 -1.10837e-009 1.52474e-010 1.24806e-009 -6.39367e-010 -7.73091 5.47488 -0.417314 1.52477e-010 1.24806e-009 -6.39366e-010 -2.90554 0.965183 -0.102902 1.52482e-010 1.24807e-009 -6.39369e-010 -10.2786 0.731801 -0.0259123 1.52483e-010 1.24806e-009 -6.39381e-010 -2.22167 -0.733487 0.20892 -2.03217e-016 0 -3.88251e-019 11.6886 -27.4934 11.217 -0.258539 35.7743 0.159794 -1.57456 -4.71195 -7.54681 2.03217e-016 0 3.88251e-019 3.14851 -21.5941 3.67918 1.78868 67.6339 -2.17115 0.601181 6.72526 -15.4563 
-60.8591 83.4177 -173.258 -1.87077 1.97463 -3.97122 4.0601 3.80291 -4.23488 6.05892 -0.163134 -1.03075 -12.6364 9.82248 -0.166643 9.08398 -10.7507 1.9336 -0 0 0 -0 0 0 5.67039e-014 8.13015e-015 -4.47328e-014 85.5783 7.78422 -6.81438 -10.8714 -4.59443 19.5321 -0.392998 17.4335 2.52861 -3.69831e-010 -5.34839e-011 -5.9945e-010 -6.47521e-010 -9.07153e-011 -1.03336e-009 -3.69832e-010 -5.34849e-011 -5.99457e-010 7.73091 5.47488 0.417314 -3.69834e-010 -5.34839e-011 -5.99449e-010 2.90554 0.965183 0.102902 -3.69828e-010 -5.34839e-011 -5.99451e-010 10.2786 0.731801 0.0259123 -3.69838e-010 -5.34818e-011 -5.99443e-010 2.22167 -0.733487 -0.20892 5.66319e-014 8.13248e-015 -4.48912e-014 -88.9299 11.4177 -2.18562 17.5302 -9.85424 -33.4455 0.00806248 2.69866 -0.379506 -3.35777e-010 2.37449e-010 -3.93924e-010 -5.80369e-010 4.12591e-010 -6.80349e-010 -3.35777e-010 2.37448e-010 -3.93919e-010 -7.73091 5.47488 -0.417314 -3.35775e-010 2.37449e-010 -3.9392e-010 -2.90554 0.965183 -0.102902 -3.35774e-010 2.37454e-010 -3.93922e-010 -10.2786 0.731801 -0.0259123 -3.35769e-010 2.37451e-010 -3.93931e-010 -2.22167 -0.733487 0.20892 -2.03217e-016 0 -3.88251e-019 11.8501 -26.1291 11.2064 -0.245083 35.3011 0.188742 -1.61754 -5.16342 -7.39425 2.03217e-016 0 3.88251e-019 3.89344 -23.0877 4.62463 1.80623 67.8005 -2.18261 0.438303 6.19023 -14.1614 
